<?xml version="1.0" standalone="no"?>
<!DOCTYPE svg PUBLIC "-//W3C//DTD SVG 20010904//EN"
 "http://www.w3.org/TR/2001/REC-SVG-20010904/DTD/svg10.dtd">
<svg version="1.0" xmlns="http://www.w3.org/2000/svg"
 width="546.000000pt" height="526.000000pt" viewBox="0 0 546.000000 526.000000"
 preserveAspectRatio="xMidYMid meet">

<g transform="translate(0.000000,526.000000) scale(0.100000,-0.100000)"
fill="#000000" stroke="none">
<path d="M0 5136 c0 -67 5 -138 11 -155 l12 -33 103 7 c57 4 118 10 136 14
l33 7 -3 79 c-2 44 -5 104 -8 133 l-4 52 2590 0 c1720 0 2590 3 2590 10 0 7
-917 10 -2730 10 l-2730 0 0 -124z"/>
<path d="M2680 5197 c0 -2 7 -18 16 -35 11 -24 13 -46 8 -94 -6 -49 -9 -58
-15 -38 -6 22 -7 21 -8 -11 -1 -43 -34 -92 -44 -66 -3 8 1 21 8 27 18 15 10
31 -10 23 -12 -4 -15 5 -15 43 0 27 -9 67 -20 89 l-19 40 5 -54 c5 -50 4 -53
-12 -40 -16 13 -16 12 -6 -8 17 -30 9 -128 -12 -148 -9 -9 -16 -21 -16 -26 0
-5 -6 -9 -14 -9 -8 0 -16 -7 -20 -15 -11 -30 -24 -14 -30 38 -8 62 -27 139
-32 134 -2 -2 2 -37 10 -78 8 -43 10 -82 6 -94 -8 -19 -9 -19 -9 2 -1 16 -6
21 -16 17 -11 -5 -15 1 -15 17 0 20 2 21 11 9 8 -12 9 -10 5 10 -3 14 -8 49
-12 78 -4 29 -11 55 -15 58 -12 7 -11 -13 2 -59 17 -63 4 -66 -16 -4 -10 32
-22 60 -26 63 -9 5 -13 -58 -9 -118 2 -35 -16 -37 -24 -3 -12 48 -24 16 -18
-50 6 -85 -13 -87 -22 -2 -4 34 -11 69 -16 77 -6 10 -8 2 -5 -25 4 -30 3 -35
-4 -20 -5 11 -10 35 -10 54 -1 24 -5 32 -15 28 -10 -4 -20 7 -30 31 -8 20 -15
30 -15 22 0 -8 8 -33 18 -55 17 -39 27 -115 14 -115 -3 0 -18 12 -32 28 -30
32 -71 56 -71 43 0 -6 8 -14 17 -20 10 -5 15 -13 11 -16 -4 -4 4 -31 17 -60
17 -40 22 -64 18 -99 -3 -25 -10 -46 -14 -46 -5 0 -9 -7 -9 -15 0 -8 -4 -15
-9 -15 -6 0 -18 -14 -28 -31 -12 -20 -24 -29 -35 -25 -10 2 -18 -1 -18 -7 0
-6 -12 -23 -26 -39 -21 -21 -31 -25 -45 -18 -14 8 -19 6 -24 -10 -3 -11 -10
-20 -15 -20 -5 0 -26 -18 -47 -39 l-38 -39 -99 -6 c-55 -3 -102 -10 -106 -16
-4 -6 -14 -8 -22 -5 -19 8 -57 -49 -65 -99 -4 -24 -10 -33 -19 -29 -10 4 -14
-4 -14 -31 0 -30 -4 -37 -27 -42 -15 -4 -36 -16 -47 -26 -20 -18 -20 -18 1
-18 12 0 24 6 27 13 5 9 7 9 12 -1 5 -10 9 -10 20 -1 12 10 14 4 13 -40 -2
-50 -19 -75 -19 -27 0 13 -7 29 -15 36 -19 16 -20 -1 -1 -38 16 -32 27 -122
15 -122 -5 0 -9 5 -9 10 0 6 -5 10 -12 10 -6 0 -4 -7 5 -18 18 -20 23 -52 7
-52 -10 0 -15 18 -46 142 -11 46 -24 78 -31 78 -17 0 -16 -28 2 -80 20 -56 18
-63 -5 -20 -11 19 -19 45 -20 58 0 29 -20 19 -20 -11 0 -12 -6 -34 -14 -49 -8
-15 -12 -36 -9 -48 4 -16 1 -20 -17 -20 -18 0 -20 -3 -10 -14 10 -13 12 -69 2
-89 -2 -4 -10 0 -19 9 -10 9 -27 14 -44 12 -15 -3 -26 -1 -23 3 2 4 -11 12
-30 19 -19 6 -53 24 -75 41 -30 21 -41 25 -41 14 0 -17 -35 -20 -46 -4 -4 8
-9 7 -15 -2 -12 -19 -4 -26 54 -44 68 -22 132 -52 185 -88 43 -29 53 -47 27
-47 -8 0 -15 -3 -15 -7 0 -5 -19 -21 -43 -37 -23 -16 -57 -49 -75 -74 -30 -39
-33 -50 -28 -86 9 -59 32 -120 47 -125 8 -2 10 2 5 15 -28 68 -8 151 32 137
13 -5 14 -3 5 7 -13 14 3 74 17 65 5 -3 17 5 27 19 24 30 62 43 75 25 8 -11 9
-10 4 4 -11 33 29 17 53 -22 13 -22 34 -44 46 -49 23 -11 37 -52 25 -71 -4 -8
-22 -8 -55 -2 -28 5 -54 6 -60 3 -5 -4 -17 -7 -25 -9 -14 -2 -87 -11 -102 -12
-5 -1 -8 -5 -8 -9 0 -5 44 -7 98 -5 101 4 171 -3 156 -16 -8 -7 -87 -33 -109
-36 -15 -2 -67 -23 -97 -40 -14 -8 -36 -15 -47 -15 -12 0 -21 -4 -21 -9 0 -9
87 10 108 23 24 15 80 16 94 3 8 -8 25 -18 38 -22 28 -8 21 2 -11 19 -33 17
-25 29 26 41 l46 12 -7 -31 c-4 -17 -8 -59 -8 -93 -1 -65 -4 -71 -24 -51 -9 9
-12 9 -12 0 0 -7 4 -12 9 -12 6 0 27 -35 47 -77 20 -43 39 -81 41 -85 2 -5 -5
-8 -17 -8 -16 0 -20 4 -15 19 3 12 0 21 -10 25 -13 5 -15 1 -10 -15 6 -18 4
-20 -17 -14 -32 11 -97 52 -130 83 -22 20 -28 22 -28 9 0 -9 25 -34 57 -56 31
-23 50 -41 42 -41 -20 0 -109 48 -137 73 -16 15 -21 17 -17 6 14 -38 143 -103
184 -92 40 10 65 -5 91 -54 13 -26 33 -60 44 -75 17 -24 18 -34 9 -80 -6 -29
-11 -149 -12 -267 0 -118 -3 -222 -6 -232 -3 -9 -2 -20 4 -23 11 -7 22 128 25
319 1 77 7 156 14 175 6 19 20 69 31 110 10 41 26 98 34 125 9 28 32 106 51
175 19 69 42 141 50 160 21 52 29 73 33 94 2 11 7 24 12 30 5 6 11 28 15 49 4
20 11 37 16 37 12 0 42 69 35 80 -3 4 4 10 15 13 14 3 20 14 20 32 0 14 4 24
9 20 5 -3 12 4 16 15 4 11 25 30 48 41 22 12 47 27 54 34 7 7 29 23 50 36 21
13 48 33 60 46 12 13 27 23 33 23 5 0 10 6 10 13 0 39 154 61 187 25 8 -9 19
-15 23 -13 4 3 13 -2 20 -10 7 -8 16 -12 21 -9 5 3 6 -2 3 -10 -4 -10 2 -15
18 -18 17 -2 23 -10 24 -31 1 -26 14 -53 14 -29 0 7 5 12 10 12 6 0 10 -9 10
-21 0 -21 62 -55 80 -44 6 4 10 1 10 -5 0 -34 125 -120 172 -119 l33 1 -31 8
c-38 9 -92 40 -121 72 -31 33 -69 121 -54 126 6 2 11 10 11 18 0 8 5 14 12 14
6 0 8 -3 5 -6 -8 -8 74 -74 84 -68 4 2 15 -3 23 -12 9 -8 16 -11 16 -5 0 6 5
11 10 11 6 0 10 -7 10 -15 0 -8 4 -15 10 -15 5 0 8 15 5 35 -5 39 0 43 27 18
17 -15 18 -15 18 1 0 14 7 17 43 13 54 -6 77 -16 77 -32 0 -7 7 -16 16 -19 13
-5 14 -9 5 -20 -10 -12 -8 -13 8 -9 13 3 21 1 21 -8 0 -7 3 -9 7 -6 7 8 33
-11 33 -25 0 -5 -10 -6 -21 -3 -19 6 -21 4 -16 -14 5 -22 -8 -30 -16 -8 -4 10
-6 10 -6 0 -1 -7 -6 -13 -12 -13 -6 0 -22 -9 -36 -20 -14 -11 -21 -20 -15 -20
6 0 14 5 17 10 3 6 17 7 30 4 12 -3 26 -1 29 5 4 6 24 11 45 11 l38 0 -1 -70
c-1 -55 3 -73 18 -87 18 -17 18 -17 7 4 -14 28 -14 65 1 98 12 27 24 32 31 13
3 -8 6 -6 6 5 1 9 6 17 11 17 6 0 10 -8 11 -17 0 -16 1 -16 8 1 7 18 8 18 14
2 9 -24 0 -36 -21 -30 -16 5 -16 5 1 -9 11 -9 17 -29 17 -53 1 -35 39 -128 40
-96 0 6 7 12 15 12 8 0 15 6 15 13 0 8 11 19 24 27 14 7 27 23 30 36 8 32 22
30 31 -3 3 -15 9 -22 13 -16 4 5 17 9 29 8 24 -2 93 -50 93 -66 0 -18 35 -44
59 -44 13 0 27 -7 29 -15 5 -13 3 -13 -12 -1 -12 10 -20 11 -27 4 -8 -8 -5
-13 10 -18 12 -3 21 -11 21 -16 0 -11 -14 -12 -23 -2 -4 3 -17 8 -30 9 -45 5
-110 22 -116 30 -7 10 -121 13 -115 3 2 -4 -7 -10 -21 -13 -14 -4 -25 -13 -25
-20 0 -8 -13 -25 -28 -38 -16 -13 -32 -39 -35 -57 -6 -29 -5 -32 8 -21 8 7 15
18 15 26 0 13 38 39 46 31 3 -2 -2 -10 -11 -17 -17 -14 -19 -48 -5 -70 9 -13
11 -13 20 0 8 13 11 12 16 -6 6 -23 64 -40 64 -20 0 6 8 1 18 -11 14 -18 28
-22 77 -23 33 -1 65 -1 70 0 31 7 82 5 93 -4 7 -5 15 -6 19 -2 3 3 12 -3 20
-14 17 -24 93 -25 93 0 0 8 7 2 15 -13 8 -16 14 -34 12 -40 -2 -11 3 -13 45
-16 25 -1 56 -50 39 -60 -16 -10 -14 -21 6 -43 14 -16 14 -18 1 -18 -18 0 -41
24 -31 33 3 4 1 7 -5 7 -18 0 -14 -31 6 -46 9 -7 28 -14 42 -14 19 0 22 -2 10
-10 -12 -8 -12 -12 0 -37 8 -15 19 -31 25 -35 6 -5 2 -8 -7 -8 -10 0 -18 -4
-18 -10 0 -5 5 -10 10 -10 6 0 10 -8 10 -17 0 -13 -3 -14 -12 -5 -14 14 -28
16 -28 3 0 -5 15 -14 33 -21 28 -10 30 -13 12 -19 -19 -8 -19 -8 2 -19 30 -17
35 -15 28 8 -5 15 -2 20 12 20 14 0 15 2 4 9 -11 7 -10 10 5 14 16 4 16 5 -3
6 -12 0 -25 5 -28 11 -3 6 1 7 9 4 15 -6 19 14 20 97 0 10 5 15 13 12 11 -4
12 -41 9 -182 -2 -97 -8 -198 -14 -226 -6 -27 -16 -84 -22 -125 -7 -41 -16
-84 -21 -95 -6 -11 -11 -30 -12 -43 0 -12 -4 -22 -8 -22 -3 0 -14 -27 -24 -60
-10 -34 -22 -63 -27 -66 -4 -3 -8 -16 -8 -30 0 -13 -4 -24 -10 -24 -5 0 -10
-8 -10 -19 0 -10 -9 -30 -21 -45 -11 -15 -18 -33 -15 -41 3 -8 2 -16 -2 -19
-4 -2 -9 -18 -10 -35 -1 -17 -13 -42 -27 -57 -27 -29 -30 -40 -15 -49 6 -3 10
4 10 16 0 18 2 19 15 9 12 -10 15 -10 15 4 0 18 11 21 26 6 7 -7 11 6 11 42 1
62 3 72 26 115 9 18 17 39 17 48 0 8 4 15 9 15 5 0 12 16 15 35 4 19 12 35 18
35 6 0 8 13 6 30 -3 17 -1 30 4 30 4 0 8 9 8 19 0 11 6 26 13 33 8 7 16 25 20
38 3 14 12 52 20 85 7 33 19 69 25 80 6 11 13 27 15 35 3 9 17 22 31 30 22 11
31 12 47 2 10 -7 19 -9 19 -4 0 14 -23 32 -42 32 -23 0 -25 52 -3 70 8 7 15
21 15 32 0 23 29 90 43 99 5 4 7 13 5 20 -3 8 2 25 12 39 9 14 24 46 34 73 10
26 22 47 27 47 5 0 9 7 9 15 0 8 13 41 29 72 16 32 41 99 56 148 15 50 30 95
35 100 4 6 13 33 19 60 l12 50 58 -3 c58 -4 101 9 101 29 0 5 -13 3 -29 -5
-27 -14 -96 -12 -105 3 -10 16 -15 150 -7 156 6 3 8 12 4 20 -3 8 0 15 6 15 6
0 11 7 11 15 0 9 6 12 15 9 12 -5 15 4 15 46 0 48 1 51 22 44 21 -6 21 -5 -5
25 -21 25 -25 38 -20 64 3 18 10 38 16 45 6 7 7 39 3 80 -8 71 -8 80 -5 165 1
43 -4 64 -27 105 -16 29 -33 52 -39 52 -5 0 -23 12 -40 26 -16 14 -41 35 -55
46 -14 11 -20 21 -14 24 15 6 4 65 -23 124 -23 52 -87 117 -135 137 -73 31
-157 53 -219 58 -77 5 -109 16 -129 41 -13 16 -13 17 3 11 9 -3 17 -2 17 3 0
6 -8 10 -17 10 -9 0 -28 10 -42 22 -14 13 -20 16 -13 8 20 -23 14 -30 -19 -23
-21 4 -34 1 -40 -8 -6 -10 -9 -8 -9 10 0 16 -4 21 -15 18 -8 -4 -24 6 -39 24
-14 16 -28 29 -31 28 -3 -1 -15 1 -26 4 -16 4 -19 11 -14 29 5 19 4 20 -5 8
-8 -10 -13 -11 -16 -4 -3 7 -14 10 -24 7 -11 -3 -20 0 -20 6 0 6 10 11 22 11
12 0 18 3 14 8 -10 9 -196 9 -196 -1 0 -4 -11 -12 -25 -19 -27 -12 -61 5 -48
25 4 7 0 8 -12 3 -11 -4 -25 0 -35 9 -16 15 -18 14 -24 -12 -6 -20 -9 -24 -16
-13 -5 8 -6 18 -4 22 3 5 2 18 -1 29 -5 16 -12 19 -31 15 -20 -5 -24 -3 -24
16 0 19 -1 20 -12 6 -11 -14 -50 -41 -117 -83 -9 -5 -19 -14 -22 -19 -4 -4 -9
-3 -13 3 -4 5 7 34 24 64 30 54 38 87 20 87 -5 0 -10 -7 -10 -15 0 -12 -39
-77 -56 -94 -3 -3 -3 23 -1 57 2 35 0 65 -5 68 -4 3 -8 -1 -8 -8 0 -25 -21
-87 -33 -100 -7 -7 -23 -28 -36 -46 -16 -24 -29 -32 -42 -29 -11 3 -19 2 -19
-2 0 -4 -11 -13 -25 -19 -22 -10 -25 -9 -25 7 0 10 3 20 6 24 4 3 8 39 9 79 2
52 -2 81 -13 101 -14 22 -32 36 -32 24z m775 -197 c3 -5 1 -10 -4 -10 -6 0
-11 5 -11 10 0 6 2 10 4 10 3 0 8 -4 11 -10z m-1066 -77 c1 -17 -3 -34 -8 -37
-4 -3 -8 19 -7 50 0 57 14 46 15 -13z m241 11 c0 -8 -5 -12 -10 -9 -6 4 -8 11
-5 16 9 14 15 11 15 -7z m-430 -44 c12 -16 17 -30 11 -30 -6 0 -17 14 -26 30
-9 17 -13 30 -11 30 3 0 14 -13 26 -30z m57 -22 c-3 -8 -6 -5 -6 6 -1 11 2 17
5 13 3 -3 4 -12 1 -19z m1514 -39 c11 -19 2 -24 -15 -10 -8 7 -19 10 -24 7 -6
-3 -15 1 -22 9 -11 13 -8 14 20 11 18 -2 36 -10 41 -17z m158 -81 c31 -26 68
-95 57 -105 -3 -3 -21 6 -41 21 -19 15 -35 22 -35 17 0 -22 -21 -10 -49 29
-15 21 -31 37 -34 33 -7 -7 -37 15 -37 28 0 4 11 7 25 6 16 -1 39 -18 61 -42
19 -22 31 -31 25 -19 -5 11 -17 26 -25 34 -9 7 -16 19 -16 26 0 18 28 7 69
-28z m71 17 c14 -8 33 -14 43 -15 29 0 126 -67 146 -101 11 -17 21 -25 23 -18
2 7 14 -4 26 -25 23 -39 30 -96 11 -96 -8 0 -10 12 -6 35 3 19 2 37 -3 40 -5
3 -10 -5 -12 -17 -5 -35 -23 -22 -22 15 2 32 -4 25 -20 -25 -9 -29 -96 -3 -96
28 0 10 -8 14 -24 12 -32 -4 -54 17 -66 64 -6 21 -27 57 -47 79 l-35 39 28 0
c16 -1 40 -7 54 -15z m-2115 -325 c3 -5 1 -10 -4 -10 -6 0 -11 5 -11 10 0 6 2
10 4 10 3 0 8 -4 11 -10z m2410 -30 c3 -5 1 -10 -4 -10 -6 0 -11 5 -11 10 0 6
2 10 4 10 3 0 8 -4 11 -10z m-2635 -14 c0 -3 -4 -8 -10 -11 -5 -3 -10 -1 -10
4 0 6 5 11 10 11 6 0 10 -2 10 -4z m2764 -77 c20 -34 33 -115 17 -105 -6 4
-11 18 -11 32 0 16 -17 43 -45 73 -25 26 -45 51 -45 54 0 16 69 -28 84 -54z
m-2774 -19 c0 -5 -10 -25 -21 -45 -12 -20 -21 -47 -21 -60 0 -14 -5 -25 -10
-25 -11 0 -3 64 13 117 7 22 15 30 25 26 8 -3 14 -9 14 -13z m2734 -16 c3 -8
2 -12 -4 -9 -6 3 -10 10 -10 16 0 14 7 11 14 -7z m-1814 -45 c0 -14 -17 -10
-23 5 -4 10 -1 13 9 9 7 -3 14 -9 14 -14z m79 -49 c0 -9 -6 -4 -14 10 -8 14
-14 32 -14 40 0 9 6 4 14 -10 8 -14 14 -32 14 -40z m126 -90 c3 -5 1 -10 -4
-10 -6 0 -11 5 -11 10 0 6 2 10 4 10 3 0 8 -4 11 -10z m-90 -19 c3 -5 1 -12
-4 -15 -5 -3 -11 1 -15 9 -6 16 9 21 19 6z m-1241 -73 c3 -16 2 -28 -3 -28
-15 0 -24 19 -26 56 -2 29 0 32 10 17 7 -10 15 -30 19 -45z m1355 -2 c10 -11
9 -14 -4 -12 -8 1 -21 8 -27 14 -9 9 -8 12 4 12 8 0 21 -6 27 -14z m261 -37
c0 -6 -4 -7 -10 -4 -5 3 -10 11 -10 16 0 6 5 7 10 4 6 -3 10 -11 10 -16z
m-1625 -9 c4 -6 10 -8 15 -5 5 3 14 -3 19 -14 13 -23 15 -71 3 -71 -16 0 -30
23 -25 38 4 9 2 13 -4 9 -6 -4 -16 6 -22 23 -9 28 0 42 14 20z m2082 -12 c-3
-8 -6 -5 -6 6 -1 11 2 17 5 13 3 -3 4 -12 1 -19z m-403 -4 c3 -8 2 -12 -4 -9
-6 3 -10 10 -10 16 0 14 7 11 14 -7z m470 -10 c3 -8 2 -12 -4 -9 -6 3 -10 10
-10 16 0 14 7 11 14 -7z m-2079 -212 c-7 -7 -45 29 -45 41 0 6 11 0 25 -13 14
-13 23 -26 20 -28z m2027 -15 c-1 -9 5 -28 14 -42 23 -35 4 -31 -29 6 -28 32
-34 45 -17 34 17 -10 34 6 19 17 -11 8 -11 9 1 5 8 -2 14 -11 12 -20z m-216
-34 c-10 -10 -19 5 -10 18 6 11 8 11 12 0 2 -7 1 -15 -2 -18z m-1768 -31 c2
-18 -1 -32 -7 -32 -6 0 -11 9 -11 19 0 11 -3 27 -7 37 -4 12 -2 15 8 12 8 -2
15 -19 17 -36z m2308 -213 c19 -22 19 -22 -3 -10 -24 12 -39 31 -25 31 5 0 17
-10 28 -21z m94 -69 c0 -13 -11 -13 -30 0 -12 8 -11 10 8 10 12 0 22 -4 22
-10z m23 -47 c5 -27 2 -41 -7 -32 -11 10 -17 59 -8 59 5 0 12 -12 15 -27z
m-123 -13 c0 -5 -2 -10 -4 -10 -3 0 -8 5 -11 10 -3 6 -1 10 4 10 6 0 11 -4 11
-10z m139 -51 c-11 -7 -12 -12 -2 -28 7 -11 10 -28 6 -37 -5 -13 -9 -8 -18 22
-11 39 -1 69 19 57 4 -3 2 -9 -5 -14z m-84 -79 c3 -5 -1 -10 -10 -10 -9 0 -13
5 -10 10 3 6 8 10 10 10 2 0 7 -4 10 -10z m115 -5 c0 -8 -4 -15 -10 -15 -5 0
-7 7 -4 15 4 8 8 15 10 15 2 0 4 -7 4 -15z m-5 -45 c3 -5 2 -10 -4 -10 -5 0
-13 5 -16 10 -3 6 -2 10 4 10 5 0 13 -4 16 -10z"/>
<path d="M2545 5120 c3 -5 11 -10 16 -10 6 0 7 5 4 10 -3 6 -11 10 -16 10 -6
0 -7 -4 -4 -10z"/>
<path d="M2200 4960 c0 -5 5 -10 11 -10 5 0 7 5 4 10 -3 6 -8 10 -11 10 -2 0
-4 -4 -4 -10z"/>
<path d="M3605 4940 c3 -5 13 -10 21 -10 8 0 12 5 9 10 -3 6 -13 10 -21 10 -8
0 -12 -4 -9 -10z"/>
<path d="M3686 4926 c21 -15 30 -14 19 3 -3 6 -14 11 -23 11 -13 0 -13 -2 4
-14z"/>
<path d="M2100 4710 c0 -5 5 -10 11 -10 5 0 7 5 4 10 -3 6 -8 10 -11 10 -2 0
-4 -4 -4 -10z"/>
<path d="M2090 4665 c0 -8 2 -15 4 -15 2 0 6 7 10 15 3 8 1 15 -4 15 -6 0 -10
-7 -10 -15z"/>
<path d="M1300 4030 c29 -23 48 -26 31 -6 -6 8 -22 16 -34 20 -21 5 -21 4 3
-14z"/>
<path d="M2910 3989 c0 -5 5 -7 10 -4 6 3 10 8 10 11 0 2 -4 4 -10 4 -5 0 -10
-5 -10 -11z"/>
<path d="M2877 3963 c-4 -6 7 -26 23 -44 21 -25 30 -29 30 -17 0 9 -8 23 -18
30 -11 7 -21 20 -24 28 -3 9 -7 10 -11 3z"/>
<path d="M2960 3950 c0 -5 5 -10 11 -10 5 0 7 5 4 10 -3 6 -8 10 -11 10 -2 0
-4 -4 -4 -10z"/>
<path d="M2589 3916 c14 -15 26 -26 28 -26 9 0 -24 40 -37 45 -8 4 -4 -5 9
-19z"/>
<path d="M3051 3904 c0 -11 3 -14 6 -6 3 7 2 16 -1 19 -3 4 -6 -2 -5 -13z"/>
<path d="M3015 3900 c-3 -5 -2 -10 4 -10 5 0 13 5 16 10 3 6 2 10 -4 10 -5 0
-13 -4 -16 -10z"/>
<path d="M2930 3876 c0 -4 7 -14 15 -22 8 -9 15 -11 15 -6 0 5 -7 15 -15 22
-8 7 -15 9 -15 6z"/>
<path d="M2908 3803 c7 -3 16 -2 19 1 4 3 -2 6 -13 5 -11 0 -14 -3 -6 -6z"/>
<path d="M2206 3792 c-10 -2 -33 -12 -50 -23 -17 -10 -50 -28 -74 -40 -23 -12
-64 -42 -90 -67 -26 -25 -51 -45 -57 -43 -5 1 -7 0 -3 -4 4 -4 -2 -24 -13 -43
-10 -20 -19 -42 -19 -49 0 -7 -9 -30 -21 -52 -21 -40 -18 -67 6 -57 7 2 18 -1
24 -7 8 -8 11 -8 11 1 0 6 -8 16 -17 21 -15 9 -14 10 9 11 25 0 27 3 22 30 -6
28 0 36 29 31 4 0 7 5 7 13 0 8 7 16 15 20 8 3 15 17 15 31 0 14 5 25 11 25 7
0 17 7 23 15 10 13 14 13 39 1 25 -14 40 -5 17 9 -5 3 -10 13 -10 21 0 16 36
19 45 4 3 -5 13 -10 22 -10 12 0 13 3 4 14 -9 11 -4 13 30 11 22 -1 45 -8 50
-16 8 -13 13 -6 10 14 -1 4 8 3 19 -3 11 -6 20 -8 20 -4 0 4 11 -3 24 -15 l23
-22 6 23 6 22 23 -21 c13 -12 28 -23 33 -24 24 -4 62 -24 83 -43 23 -20 23
-20 16 -1 -7 19 -7 19 13 3 23 -21 37 -23 30 -5 -4 10 2 13 19 9 13 -2 27 -8
30 -13 10 -17 25 -9 22 13 -4 30 28 37 37 9 11 -36 25 -23 25 23 0 56 14 68
18 15 1 -21 7 -49 12 -61 6 -17 9 -5 8 47 0 42 4 71 11 73 17 6 13 58 -6 73
-15 13 -15 12 -3 -11 13 -24 12 -25 -7 -7 -11 9 -32 17 -47 17 -15 0 -41 9
-57 21 -25 18 -29 18 -29 4 0 -14 -5 -14 -36 5 -28 18 -40 20 -59 12 -16 -8
-26 -7 -34 1 -8 8 -14 8 -19 2 -9 -12 -53 -15 -46 -3 5 8 -26 4 -63 -7 -7 -2
-15 0 -18 5 -4 6 -14 6 -26 -1 -12 -6 -25 -7 -32 -1 -7 4 -21 7 -31 4z m111
-144 c-3 -8 -6 -5 -6 6 -1 11 2 17 5 13 3 -3 4 -12 1 -19z"/>
<path d="M2720 3661 c0 -5 6 -23 14 -41 11 -27 14 -29 18 -13 6 23 -8 63 -22
63 -5 0 -10 -4 -10 -9z"/>
<path d="M2205 3641 c-3 -5 -1 -12 5 -16 5 -3 10 1 10 9 0 18 -6 21 -15 7z"/>
<path d="M2787 3643 c-4 -3 -7 -22 -6 -42 l1 -36 9 39 c9 39 8 52 -4 39z"/>
<path d="M3276 3578 c3 -5 10 -6 15 -3 13 9 11 12 -6 12 -8 0 -12 -4 -9 -9z"/>
<path d="M4480 3580 c0 -5 5 -10 10 -10 6 0 10 5 10 10 0 6 -4 10 -10 10 -5 0
-10 -4 -10 -10z"/>
<path d="M4438 3563 c7 -3 16 -2 19 1 4 3 -2 6 -13 5 -11 0 -14 -3 -6 -6z"/>
<path d="M3236 3552 c-2 -4 4 -9 15 -9 10 -1 19 2 19 8 0 11 -27 12 -34 1z"/>
<path d="M3200 3460 c0 -5 5 -10 10 -10 6 0 10 5 10 10 0 6 -4 10 -10 10 -5 0
-10 -4 -10 -10z"/>
<path d="M1861 3381 c-8 -5 -9 -11 -3 -15 5 -3 12 1 16 9 6 17 6 18 -13 6z"/>
<path d="M2210 3280 c-30 -10 -64 -20 -75 -20 -11 0 -33 -14 -49 -30 -27 -27
-27 -30 -10 -36 10 -3 28 -10 39 -14 11 -5 39 -12 63 -15 24 -4 56 -13 70 -21
15 -8 35 -14 46 -14 15 0 16 3 6 15 -7 8 -20 15 -30 15 -9 0 -25 9 -35 20 -10
11 -22 17 -26 14 -15 -9 -10 6 9 26 24 25 64 31 67 9 11 -66 32 -79 134 -79
l67 0 14 35 c15 39 22 42 40 20 7 -8 18 -15 25 -15 6 0 17 -12 24 -26 14 -31
26 -25 18 8 -11 43 -129 103 -217 112 -25 3 -63 7 -85 10 -27 4 -58 0 -95 -14z
m217 -46 c2 -7 -8 -14 -22 -16 -14 -3 -25 -4 -25 -2 0 1 -3 9 -6 18 -4 11 1
14 22 13 15 -1 29 -7 31 -13z"/>
<path d="M3795 3230 c-3 -5 -4 -10 -1 -10 2 0 11 -3 20 -6 11 -4 16 -1 16 10
0 18 -25 22 -35 6z"/>
<path d="M2535 3150 c-30 -8 -30 -8 8 -9 20 0 37 4 37 9 0 11 -2 11 -45 0z"/>
<path d="M1270 3133 c0 -10 76 -38 128 -47 39 -7 44 11 5 19 -48 9 -97 22
-115 30 -10 4 -18 3 -18 -2z"/>
<path d="M1480 3132 c0 -6 7 -17 15 -26 8 -8 15 -19 15 -25 0 -5 4 -13 10 -16
6 -4 7 1 3 12 -9 25 -43 68 -43 55z"/>
<path d="M2210 3100 c0 -5 5 -10 11 -10 5 0 7 5 4 10 -3 6 -8 10 -11 10 -2 0
-4 -4 -4 -10z"/>
<path d="M3359 3086 c-2 -2 -26 -5 -54 -7 -58 -3 -75 -8 -75 -21 0 -5 19 -8
43 -6 36 3 42 0 40 -16 -3 -38 15 -64 49 -71 18 -4 38 -11 43 -16 6 -4 29 -11
50 -14 37 -6 42 -4 60 24 11 17 25 31 31 31 17 0 44 -34 36 -47 -7 -12 -78
-29 -101 -24 -7 1 -11 -4 -9 -11 3 -8 25 -14 59 -15 30 -1 65 -6 79 -9 14 -4
31 -6 38 -5 6 1 12 -2 12 -6 0 -4 16 -8 35 -9 19 0 35 2 35 5 -1 19 -52 84
-81 106 -63 45 -112 77 -123 79 -43 9 -134 28 -147 32 -8 2 -17 2 -20 0z m91
-67 c0 -12 -53 -5 -57 8 -2 6 4 13 14 15 19 5 43 -8 43 -23z"/>
<path d="M3190 3035 c0 -8 10 -19 22 -26 18 -10 20 -9 15 6 -4 9 -7 21 -7 26
0 5 -7 9 -15 9 -8 0 -15 -7 -15 -15z"/>
<path d="M3250 3001 c0 -4 17 -15 37 -25 38 -18 38 -18 20 2 -19 20 -57 36
-57 23z"/>
<path d="M3406 2916 c3 -8 16 -16 29 -18 16 -4 22 -1 18 9 -3 7 -9 11 -13 8
-5 -3 -11 -1 -15 5 -9 15 -25 12 -19 -4z"/>
<path d="M3950 2886 c0 -9 5 -16 10 -16 6 0 10 4 10 9 0 6 -4 13 -10 16 -5 3
-10 -1 -10 -9z"/>
<path d="M2630 2679 c-34 -14 -34 -13 -2 -45 16 -16 31 -36 34 -44 5 -13 9
-13 33 0 44 24 54 46 30 69 -25 25 -63 33 -95 20z"/>
<path d="M4122 2638 c-7 -7 -12 -21 -12 -32 0 -17 3 -16 15 8 17 32 15 42 -3
24z"/>
<path d="M2950 2613 c-17 -7 -40 -29 -40 -38 0 -3 5 -3 10 0 6 4 15 -7 21 -24
6 -17 13 -31 14 -31 2 0 25 11 50 24 25 14 53 22 61 19 26 -10 3 27 -27 42
-29 15 -62 18 -89 8z"/>
<path d="M1611 2410 c-1 -21 16 -46 26 -37 4 5 3 11 -3 15 -6 4 -14 14 -17 22
-5 13 -5 13 -6 0z"/>
<path d="M3040 2410 c0 -5 6 -10 14 -10 8 0 18 5 21 10 3 6 -3 10 -14 10 -12
0 -21 -4 -21 -10z"/>
<path d="M3982 2395 c0 -16 2 -22 5 -12 2 9 2 23 0 30 -3 6 -5 -1 -5 -18z"/>
<path d="M1611 2334 c0 -11 3 -14 6 -6 3 7 2 16 -1 19 -3 4 -6 -2 -5 -13z"/>
<path d="M1591 2234 c0 -11 3 -14 6 -6 3 7 2 16 -1 19 -3 4 -6 -2 -5 -13z"/>
<path d="M2245 2120 c-6 -10 19 -20 55 -20 33 0 60 9 60 20 0 10 -109 10 -115
0z"/>
<path d="M3872 2118 c-16 -16 -15 -38 1 -38 17 0 37 20 37 37 0 16 -22 17 -38
1z"/>
<path d="M2470 2113 c14 -3 45 -12 70 -20 25 -9 65 -19 90 -23 41 -7 208 -47
305 -73 44 -12 78 -31 112 -60 25 -22 106 -41 100 -24 -2 6 -16 15 -32 20 -15
5 -38 18 -51 29 -12 11 -24 19 -26 17 -1 -1 -14 4 -28 11 -14 8 -34 15 -44 17
-11 2 -33 10 -49 18 -17 8 -49 15 -71 15 -24 0 -60 10 -87 24 -28 15 -65 25
-99 27 -30 1 -69 9 -87 16 -18 7 -54 12 -80 12 -27 -1 -37 -4 -23 -6z"/>
<path d="M3857 1913 c-24 -42 -12 -123 17 -123 37 0 59 68 36 111 -11 19 -45
26 -53 12z"/>
<path d="M3750 1884 c0 -8 -4 -13 -9 -10 -5 3 -8 -8 -7 -24 2 -33 49 -100 70
-100 8 0 -2 16 -21 35 -31 31 -34 38 -28 75 3 22 3 40 0 40 -3 0 -5 -7 -5 -16z"/>
<path d="M3700 1805 c-1 -5 -3 -16 -4 -23 0 -7 -6 -16 -13 -20 -6 -4 -23 -31
-36 -60 -14 -29 -27 -53 -31 -53 -17 2 -18 0 -6 -14 7 -8 15 -15 19 -15 6 0
51 92 51 106 0 4 7 15 16 25 9 10 14 28 11 41 -2 13 -5 19 -7 13z"/>
<path d="M3600 1601 c0 -11 -4 -23 -10 -26 -5 -3 -10 -1 -10 4 0 6 -5 11 -11
11 -6 0 -9 -9 -6 -20 3 -11 1 -23 -4 -26 -5 -3 -9 2 -9 11 0 9 -5 13 -10 10
-6 -4 -8 -11 -5 -16 4 -5 1 -9 -5 -9 -7 0 -10 -7 -6 -15 3 -10 -1 -15 -12 -16
-10 0 -12 -3 -4 -6 6 -2 12 -9 12 -14 0 -6 -5 -7 -10 -4 -17 11 -52 -5 -46
-21 3 -8 -1 -17 -9 -20 -8 -4 -12 -10 -9 -15 5 -8 -10 -13 -29 -10 -5 1 -11
-7 -14 -18 -3 -12 -20 -26 -39 -33 -19 -7 -34 -18 -34 -26 0 -9 -6 -12 -16 -8
-9 4 -23 1 -32 -6 -13 -11 -15 -10 -10 7 3 11 9 29 14 39 5 14 4 17 -4 12 -7
-4 -12 -14 -12 -22 0 -8 -4 -14 -9 -14 -5 0 -17 -7 -26 -16 -11 -12 -19 -13
-28 -5 -10 8 -17 3 -31 -19 -9 -17 -14 -36 -11 -43 4 -6 -1 -3 -9 7 -14 18
-18 18 -43 5 -16 -8 -34 -20 -41 -26 -7 -7 -18 -13 -23 -13 -5 0 -9 -7 -9 -15
0 -8 -5 -15 -11 -15 -5 0 -8 4 -5 9 3 5 -2 8 -12 7 -9 0 -16 5 -14 12 1 8 -2
11 -6 8 -5 -3 -12 -19 -16 -36 -5 -30 -6 -30 -29 -15 -25 16 -82 12 -93 -7 -3
-5 -12 -1 -20 9 -12 17 -13 17 -14 1 0 -19 -30 -26 -30 -7 0 5 -5 7 -11 4 -7
-5 -4 -14 8 -28 14 -17 14 -19 2 -9 -9 7 -21 12 -25 11 -10 -2 -35 6 -71 23
-16 8 -26 8 -37 -1 -8 -7 -20 -10 -27 -6 -8 6 -7 10 2 16 10 6 8 9 -8 9 -16 0
-20 -5 -16 -20 3 -11 1 -20 -5 -20 -12 0 -33 25 -36 43 -5 37 -76 67 -76 33 0
-24 -22 -31 -36 -12 -7 10 -17 15 -23 11 -7 -3 -11 2 -11 14 0 14 -5 19 -15
15 -8 -4 -22 -1 -29 5 -11 10 -15 9 -18 -4 -3 -15 -6 -14 -27 4 -29 25 -32 26
-25 6 8 -20 -10 -19 -26 0 -9 11 -15 12 -20 5 -10 -16 -40 -1 -40 20 0 19 -37
34 -43 17 -4 -12 -97 74 -97 90 0 6 6 14 13 16 6 3 2 6 -11 6 -19 1 -22 -3
-17 -19 5 -15 3 -18 -10 -14 -20 8 -57 83 -48 98 4 6 -3 3 -14 -7 -21 -19 -73
-15 -73 5 0 6 -7 8 -14 5 -10 -4 -13 -1 -10 7 3 7 -1 18 -9 24 -11 9 -13 6 -9
-18 3 -20 13 -33 33 -42 24 -10 29 -20 30 -48 1 -24 3 -28 6 -12 4 21 6 21 28
-12 13 -19 26 -43 30 -55 3 -12 11 -21 18 -21 8 0 8 3 -1 12 -7 7 -12 17 -12
22 0 6 7 0 16 -12 8 -12 22 -22 30 -22 8 0 14 -5 14 -11 0 -5 5 -7 12 -3 8 5
9 2 5 -10 -4 -10 -3 -15 3 -11 12 8 62 -30 52 -39 -3 -4 2 -4 11 0 12 4 26 -1
41 -15 12 -12 25 -18 29 -15 3 3 19 -3 35 -15 17 -12 37 -21 45 -21 8 0 26
-11 40 -24 17 -16 29 -21 33 -14 4 7 10 5 16 -6 6 -10 22 -16 48 -16 21 0 41
-4 44 -9 9 -14 54 -19 65 -8 8 8 11 6 11 -6 0 -12 8 -17 28 -17 15 0 51 -3 80
-6 33 -4 52 -3 52 4 0 14 -33 24 -54 16 -9 -3 -16 -2 -16 4 0 6 -10 8 -21 5
-16 -4 -20 -2 -17 8 7 21 69 24 80 5 5 -9 13 -16 18 -16 6 0 19 -9 30 -20 11
-11 26 -17 35 -14 8 4 22 1 30 -6 12 -10 16 -9 21 4 9 24 21 20 32 -11 9 -25
11 -25 11 -6 1 25 16 38 26 23 4 -6 10 -8 15 -5 5 3 20 -1 34 -10 21 -14 24
-14 29 0 5 10 0 15 -14 15 -11 0 -18 4 -14 9 3 6 17 6 35 1 23 -7 32 -5 39 8
5 9 13 14 17 10 8 -8 64 22 64 34 0 4 -8 8 -17 8 -14 0 -14 3 -5 12 17 17 34
-8 28 -37 -4 -18 -4 -18 7 -4 7 9 32 25 57 36 25 11 54 30 64 42 11 11 26 21
34 21 8 0 29 11 46 24 18 13 40 26 51 29 17 4 17 5 3 6 -25 1 -23 21 1 21 11
0 23 5 26 10 3 6 17 10 30 10 18 0 23 4 19 15 -4 9 -1 15 8 15 7 0 19 9 26 20
17 28 32 16 24 -18 -4 -15 -7 -49 -7 -77 0 -27 -4 -53 -9 -56 -5 -4 -5 -12 -1
-19 9 -15 9 -160 -1 -168 -4 -4 -4 1 -1 10 3 10 1 20 -5 24 -7 5 -9 -2 -4 -22
17 -71 18 -84 5 -84 -7 0 -10 -2 -7 -5 3 -3 -3 -35 -13 -72 -19 -66 -19 -66 1
-45 11 12 20 25 20 30 0 5 9 21 21 36 11 14 17 31 13 37 -4 8 -3 9 5 5 8 -6
10 0 5 21 -4 15 -8 93 -8 173 0 218 16 338 52 381 9 12 25 30 35 41 19 23 23
58 7 58 -5 0 -10 -9 -10 -19z m-86 -166 c-4 -8 -11 -12 -16 -9 -6 4 -5 10 3
15 19 12 19 11 13 -6z m-91 -102 c-7 -2 -19 -2 -25 0 -7 3 -2 5 12 5 14 0 19
-2 13 -5z m-133 -79 c0 -8 -5 -12 -10 -9 -6 4 -8 11 -5 16 9 14 15 11 15 -7z
m-757 -44 c13 -26 13 -31 -1 -42 -11 -9 -14 -9 -9 -1 5 7 1 26 -8 43 -8 16
-11 30 -6 30 5 0 16 -13 24 -30z m-173 0 c0 -5 -5 -10 -11 -10 -5 0 -7 5 -4
10 3 6 8 10 11 10 2 0 4 -4 4 -10z m83 -33 c4 3 7 1 7 -5 0 -6 18 -17 40 -23
22 -7 40 -16 40 -21 0 -10 -6 -10 -28 2 -9 5 -34 17 -54 26 -21 9 -38 21 -38
26 0 7 5 6 13 -1 8 -6 17 -8 20 -4z m117 -27 c0 -5 -2 -10 -4 -10 -3 0 -8 5
-11 10 -3 6 -1 10 4 10 6 0 11 -4 11 -10z m30 -9 c0 -6 -4 -13 -10 -16 -5 -3
-10 1 -10 9 0 9 5 16 10 16 6 0 10 -4 10 -9z m363 -28 c-7 -2 -19 -2 -25 0 -7
3 -2 5 12 5 14 0 19 -2 13 -5z"/>
<path d="M3465 1330 c-3 -5 -1 -10 4 -10 6 0 11 5 11 10 0 6 -2 10 -4 10 -3 0
-8 -4 -11 -10z"/>
<path d="M3465 1300 c-3 -5 -1 -10 4 -10 6 0 11 5 11 10 0 6 -2 10 -4 10 -3 0
-8 -4 -11 -10z"/>
<path d="M2305 1170 c3 -5 8 -10 11 -10 2 0 4 5 4 10 0 6 -5 10 -11 10 -5 0
-7 -4 -4 -10z"/>
<path d="M3520 1017 c0 -2 12 -26 26 -53 36 -67 43 -165 18 -231 -24 -62 -123
-247 -135 -251 -5 -2 -9 -10 -9 -18 0 -15 -25 -42 -56 -60 -10 -6 -20 -23 -22
-38 -3 -23 -7 -27 -27 -22 -26 7 -48 -13 -43 -41 2 -12 -3 -18 -17 -18 -32 0
-46 -14 -39 -41 5 -19 2 -24 -14 -24 -27 0 -47 -27 -44 -61 4 -35 -6 -69 -20
-69 -6 0 -8 12 -4 33 5 30 5 31 -9 12 -10 -12 -13 -30 -9 -47 6 -29 -1 -34
-25 -19 -7 5 -10 14 -7 20 11 16 -1 13 -24 -7 -11 -9 -46 -32 -77 -49 l-58
-33 48 0 c42 0 49 3 57 26 11 29 34 23 25 -7 -6 -19 16 -19 1199 -19 l1206 0
0 295 0 295 -22 0 c-13 0 -52 -5 -88 -10 -36 -5 -110 -14 -165 -20 -55 -5
-134 -15 -175 -20 -41 -6 -97 -13 -125 -16 -27 -3 -59 -7 -71 -9 -13 -3 -28 3
-40 16 -43 48 -73 45 -144 -12 -33 -26 -39 -28 -75 -18 -52 13 -148 52 -261
104 -49 23 -108 48 -130 55 -67 22 -113 57 -135 104 -16 34 -30 48 -60 60 -22
9 -49 16 -60 16 -11 0 -58 18 -104 40 -46 22 -90 40 -98 40 -7 0 -24 12 -38
26 -32 34 -77 60 -116 69 -18 3 -33 5 -33 2z m-205 -705 c0 -18 -20 -15 -23 4
-3 10 1 15 10 12 7 -3 13 -10 13 -16z m-55 -57 c0 -8 -7 -15 -15 -15 -8 0 -15
7 -15 15 0 8 7 15 15 15 8 0 15 -7 15 -15z m-52 -67 c2 -9 -6 -18 -18 -21 -16
-4 -20 -2 -16 10 3 8 6 19 6 25 0 15 25 3 28 -14z m-102 -139 c7 -12 -22 -46
-32 -37 -8 9 5 48 16 48 5 0 12 -5 16 -11z"/>
<path d="M3530 932 c0 -4 5 -13 12 -20 9 -9 9 -12 -2 -13 -8 -1 -19 0 -25 1
-5 1 -7 -2 -2 -6 4 -4 16 -8 26 -9 17 -1 19 7 12 48 -1 10 -21 9 -21 -1z"/>
<path d="M3530 816 c0 -9 5 -16 10 -16 6 0 10 4 10 9 0 6 -4 13 -10 16 -5 3
-10 -1 -10 -9z"/>
<path d="M1501 794 c0 -11 3 -14 6 -6 3 7 2 16 -1 19 -3 4 -6 -2 -5 -13z"/>
<path d="M1455 770 c-3 -5 -3 -19 0 -30 4 -11 2 -20 -3 -20 -6 0 -12 5 -14 11
-2 6 -17 -6 -33 -27 -45 -59 -100 -104 -160 -133 -11 -5 -33 -23 -50 -40 -16
-18 -68 -51 -116 -75 -47 -24 -104 -55 -127 -70 -23 -14 -44 -26 -47 -26 -9 0
-110 -46 -170 -77 -162 -83 -209 -105 -290 -139 -49 -20 -126 -54 -171 -75
-44 -22 -87 -39 -95 -39 -8 -1 -25 -7 -39 -15 -22 -13 72 -14 740 -12 l765 2
2 27 c1 15 -2 30 -6 33 -5 2 -9 -1 -8 -8 1 -28 -3 -47 -11 -47 -8 0 -43 54
-42 65 1 23 -3 26 -11 7 -5 -13 -6 -29 -3 -35 4 -7 -8 3 -26 22 -86 87 -193
289 -207 387 -5 38 -2 50 28 94 19 27 37 50 40 50 4 0 10 -11 13 -25 4 -14 11
-25 16 -25 17 0 11 32 -7 46 -15 11 -16 16 -5 34 9 14 9 26 3 39 -7 12 -6 22
1 29 20 20 28 13 22 -18 -5 -20 -3 -30 6 -30 7 0 10 8 7 20 -3 10 1 25 9 31 9
7 12 20 8 32 -4 14 -3 17 6 12 8 -5 11 -1 8 10 -4 22 -23 31 -33 15z"/>
<path d="M1440 606 c0 -8 5 -18 10 -21 6 -3 10 1 10 9 0 8 -4 18 -10 21 -5 3
-10 -1 -10 -9z"/>
<path d="M1432 511 c3 -27 28 -42 28 -17 0 9 5 16 10 16 6 0 10 5 10 11 0 8
-5 7 -16 -2 -13 -10 -17 -10 -25 2 -8 11 -9 8 -7 -10z"/>
<path d="M1482 452 c1 -19 5 -29 10 -24 5 5 5 19 -1 33 -8 22 -9 22 -9 -9z"/>
<path d="M1450 441 c0 -17 12 -41 20 -41 10 0 1 38 -11 46 -5 3 -9 1 -9 -5z"/>
<path d="M3235 420 c-3 -5 -1 -10 4 -10 6 0 11 5 11 10 0 6 -2 10 -4 10 -3 0
-8 -4 -11 -10z"/>
<path d="M1504 376 c1 -19 4 -37 7 -40 9 -9 9 45 1 61 -6 10 -8 3 -8 -21z"/>
<path d="M1470 363 c0 -11 4 -23 9 -28 6 -6 11 -22 13 -37 4 -28 18 -51 18
-29 0 7 -5 32 -11 57 -12 47 -29 68 -29 37z"/>
<path d="M1532 287 c-9 -10 -6 -18 9 -31 22 -18 22 -47 2 -54 -7 -2 -13 5 -14
15 0 11 -3 13 -6 5 -8 -21 17 -44 33 -31 18 15 18 39 -2 67 -8 12 -12 27 -9
32 9 14 -1 12 -13 -3z"/>
<path d="M1574 157 c0 -20 3 -37 7 -37 15 0 17 16 5 44 l-12 30 0 -37z"/>
<path d="M1540 142 c0 -11 5 -24 10 -27 6 -4 9 2 7 14 -4 29 -17 39 -17 13z"/>
<path d="M1604 103 c4 -12 2 -24 -4 -28 -12 -8 -4 -25 12 -25 6 0 8 3 5 7 -4
3 -3 11 2 17 6 7 4 19 -6 31 -15 20 -15 20 -9 -2z"/>
</g>
</svg>
